<svg width="440" height="477" viewBox="0 0 440 477" fill="none" xmlns="http://www.w3.org/2000/svg">
<path d="M147.775 415.198H292.224C289.338 432.236 280.501 447.703 267.28 458.857C254.06 470.011 237.309 476.13 220 476.13C202.691 476.13 185.94 470.011 172.72 458.857C159.499 447.703 150.662 432.236 147.775 415.198V415.198ZM220 0.82312C268.568 0.82312 315.146 20.0837 349.489 54.3677C383.832 88.6517 403.125 135.151 403.125 183.636V281.136L437.748 358.161C439.322 361.683 439.99 365.543 439.69 369.389C439.39 373.235 438.133 376.945 436.033 380.183C433.932 383.42 431.054 386.083 427.661 387.928C424.268 389.773 420.467 390.744 416.603 390.75H23.4947C19.6254 390.749 15.8178 389.782 12.4185 387.937C9.01915 386.092 6.13619 383.428 4.03209 380.186C1.928 376.944 0.66961 373.229 0.371524 369.378C0.073438 365.527 0.745125 361.662 2.32541 358.136L36.875 281.111V183.319L36.9971 177.225C38.6673 129.885 58.679 85.0407 92.816 52.1396C126.953 19.2385 172.55 0.849718 220 0.847493V0.82312Z" fill="black"/>
</svg>
