<svg width="242" height="282" viewBox="0 0 242 282" fill="none" xmlns="http://www.w3.org/2000/svg">
<path d="M241.625 73.9375C241.625 54.4275 233.875 35.7166 220.079 21.921C206.283 8.12531 187.572 0.375 168.062 0.375C148.552 0.375 129.842 8.12531 116.046 21.921C102.25 35.7166 94.5 54.4275 94.5 73.9375C94.5 93.4475 102.25 112.158 116.046 125.954C129.842 139.75 148.552 147.5 168.062 147.5C187.572 147.5 206.283 139.75 220.079 125.954C233.875 112.158 241.625 93.4475 241.625 73.9375ZM174.75 80.625L174.763 114.116C174.763 115.89 174.059 117.591 172.805 118.845C171.55 120.099 169.849 120.803 168.076 120.803C166.302 120.803 164.601 120.099 163.347 118.845C162.093 117.591 161.388 115.89 161.388 114.116V80.625H127.884C126.11 80.625 124.409 79.9204 123.155 78.6663C121.901 77.4121 121.196 75.7111 121.196 73.9375C121.196 72.1639 121.901 70.4629 123.155 69.2087C124.409 67.9546 126.11 67.25 127.884 67.25H161.375V33.8125C161.375 32.0389 162.08 30.3379 163.334 29.0837C164.588 27.8296 166.289 27.125 168.062 27.125C169.836 27.125 171.537 27.8296 172.791 29.0837C174.045 30.3379 174.75 32.0389 174.75 33.8125V67.25H208.147C209.921 67.25 211.622 67.9546 212.876 69.2087C214.13 70.4629 214.835 72.1639 214.835 73.9375C214.835 75.7111 214.13 77.4121 212.876 78.6663C211.622 79.9204 209.921 80.625 208.147 80.625H174.75ZM168.062 160.875C174.977 160.875 181.705 160.073 188.125 158.548V271.165C188.121 273.008 187.61 274.814 186.647 276.386C185.684 277.957 184.307 279.233 182.667 280.073C181.027 280.913 179.187 281.285 177.349 281.148C175.511 281.011 173.747 280.371 172.249 279.297L94.5267 223.376L16.7912 279.284C15.2935 280.361 13.5276 281.005 11.6877 281.144C9.84785 281.283 8.00536 280.911 6.36288 280.071C4.7204 279.23 3.34159 277.953 2.37809 276.379C1.41459 274.806 0.903738 272.997 0.901733 271.152V70.5938C0.901733 64.8854 2.02609 59.2329 4.2106 53.959C6.39511 48.6851 9.59699 43.8931 13.6334 39.8567C17.6699 35.8203 22.4618 32.6184 27.7357 30.4339C33.0096 28.2494 38.6621 27.125 44.3705 27.125H94.7942C86.3977 40.2648 81.6899 55.4212 81.1641 71.0058C80.6382 86.5904 84.3137 102.03 91.8054 115.705C99.2971 129.381 110.329 140.791 123.746 148.738C137.162 156.685 152.469 160.877 168.062 160.875V160.875Z" fill="black"/>
</svg>
