<svg width="482" height="583" viewBox="0 0 482 583" fill="none" xmlns="http://www.w3.org/2000/svg">
<path d="M0.5 73.0625V509.938C0.5 529.249 8.17129 547.769 21.8263 561.424C35.4813 575.079 54.0014 582.75 73.3125 582.75H459.219C465.012 582.75 470.568 580.449 474.665 576.352C478.761 572.256 481.062 566.7 481.062 560.906C481.062 555.113 478.761 549.557 474.665 545.46C470.568 541.364 465.012 539.062 459.219 539.062H73.3125C65.5881 539.062 58.18 535.994 52.718 530.532C47.256 525.07 44.1875 517.662 44.1875 509.938H459.219C465.012 509.938 470.568 507.636 474.665 503.54C478.761 499.443 481.062 493.887 481.062 488.094V73.0625C481.063 63.5006 479.179 54.0324 475.52 45.1984C471.861 36.3643 466.497 28.3376 459.736 21.5763C452.975 14.815 444.948 9.45169 436.114 5.79252C427.28 2.13335 417.812 0.25 408.25 0.25H73.3125C54.0014 0.25 35.4813 7.92129 21.8263 21.5763C8.17129 35.2313 0.5 53.7514 0.5 73.0625V73.0625ZM204.375 175.524C204.238 181.226 201.876 186.649 197.795 190.632C193.713 194.616 188.235 196.845 182.531 196.844C160.688 196.844 160.688 174.971 160.688 174.971V174.709C160.703 173.405 160.781 172.102 160.921 170.806C162.209 159.555 166.427 148.84 173.153 139.73C186.376 121.876 210.142 108.799 248.441 109.469C276.11 109.964 300.662 121.556 316.04 140.633C331.68 160.059 336.952 186.359 326.584 212.251C316.04 238.609 292.187 249.094 278.469 255.094L277.013 255.764C268.858 259.346 264.984 261.21 262.654 263.074L262.625 263.103V284.19C262.629 289.983 260.331 295.541 256.237 299.64C252.144 303.739 246.589 306.044 240.796 306.048C235.002 306.052 229.445 303.754 225.346 299.66C221.246 295.567 218.941 290.012 218.938 284.219V262.375C218.938 247.143 226.277 236.25 235.335 228.969C242.616 223.144 251.79 219.124 258.227 216.27L259.334 215.775C275.12 208.814 282.634 204.504 286.041 195.999C288.042 191.427 288.726 186.387 288.015 181.446C287.305 176.506 285.23 171.863 282.022 168.039C275.557 160.03 263.703 153.418 247.684 153.156C220.452 152.69 211.423 161.457 208.278 165.738C206.195 168.566 204.853 171.87 204.375 175.35V175.524V175.524ZM269.906 364.312C269.906 372.037 266.838 379.445 261.376 384.907C255.914 390.369 248.506 393.438 240.781 393.438C233.057 393.438 225.649 390.369 220.187 384.907C214.725 379.445 211.656 372.037 211.656 364.312C211.656 356.588 214.725 349.18 220.187 343.718C225.649 338.256 233.057 335.188 240.781 335.188C248.506 335.188 255.914 338.256 261.376 343.718C266.838 349.18 269.906 356.588 269.906 364.312V364.312Z" fill="white"/>
</svg>
