<svg width="163" height="191" viewBox="0 0 163 191" fill="none" xmlns="http://www.w3.org/2000/svg">
<path d="M66.9583 33.4792C66.9604 41.5112 64.0676 49.2749 58.8102 55.3472C53.5528 61.4195 46.283 65.3936 38.3333 66.541V90.7292H97.9687C103.663 90.7292 109.123 88.4673 113.149 84.4411C117.176 80.4149 119.437 74.9543 119.437 69.2604V65.4915C111.769 63.1802 105.186 58.1916 100.887 51.4341C96.588 44.6766 94.8591 36.5998 96.0152 28.6746C97.1714 20.7494 101.136 13.5031 107.186 8.25536C113.236 3.00761 120.97 0.107551 128.979 0.0833367C137.433 0.0681104 145.578 3.25937 151.771 9.0134C157.964 14.7674 161.744 22.656 162.349 31.0879C162.955 39.5197 160.34 47.8674 155.032 54.4471C149.724 61.0267 142.119 65.3486 133.75 66.541V69.2604C133.75 78.7502 129.98 87.8513 123.27 94.5616C116.56 101.272 107.459 105.042 97.9687 105.042H38.3333V124.459C46.4812 125.635 53.9075 129.779 59.1869 136.096C64.4662 142.412 67.2265 150.456 66.9378 158.683C66.6491 166.911 63.3319 174.741 57.6228 180.672C51.9138 186.603 44.2152 190.217 36.005 190.819C27.7947 191.421 19.6514 188.969 13.1382 183.934C6.625 178.9 2.20087 171.637 0.715089 163.54C-0.770693 155.443 0.786575 147.082 5.08796 140.063C9.38934 133.044 16.1317 127.861 24.0208 125.509V65.4915C16.3525 63.1802 9.76935 58.1916 5.47034 51.4341C1.17133 44.6766 -0.557545 36.5998 0.598573 28.6746C1.75469 20.7494 5.71889 13.5031 11.7692 8.25536C17.8195 3.00761 25.5535 0.107551 33.5625 0.0833367C42.4196 0.0833367 50.914 3.60182 57.1769 9.86475C63.4398 16.1277 66.9583 24.622 66.9583 33.4792V33.4792Z" fill="black"/>
</svg>
