<svg width="613" height="613" viewBox="0 0 613 613" fill="none" xmlns="http://www.w3.org/2000/svg">
<path d="M306.505 0.130525C368.312 0.131619 428.675 18.8146 479.671 53.7276C530.667 88.6407 569.915 138.152 592.263 195.765C614.611 253.378 619.015 316.399 604.897 376.559C590.78 436.719 558.8 491.207 513.155 532.87C467.51 574.534 410.333 601.428 349.127 610.022C287.921 618.616 225.546 608.509 170.188 581.027C114.83 553.545 69.0762 509.972 38.9302 456.028C8.78421 402.083 -4.34496 340.286 1.26571 278.748C1.66821 274.294 2.94412 269.964 5.02059 266.003C7.09706 262.043 9.93342 258.53 13.3677 255.666C16.802 252.801 20.767 250.641 25.0364 249.309C29.3057 247.976 33.7957 247.498 38.25 247.9C42.7044 248.302 47.0358 249.578 50.9971 251.654C54.9583 253.73 58.4718 256.566 61.3369 259.999C64.202 263.433 66.3626 267.397 67.6953 271.666C69.0281 275.934 69.5068 280.423 69.1043 284.876C65.8297 319.697 70.3025 354.811 82.2019 387.699C94.1013 420.588 113.132 450.436 137.931 475.104C150.701 487.872 164.903 499.176 180.228 508.744C218.183 532.434 262.04 544.965 306.785 544.906C351.529 544.847 395.353 532.199 433.245 508.409C471.138 484.619 501.568 450.647 521.057 410.378C540.546 370.11 548.306 325.171 543.449 280.7C538.593 236.23 521.316 194.023 493.596 158.908C465.875 123.793 428.829 97.1868 386.694 82.1321C344.56 67.0775 299.038 64.1823 255.336 73.7776C211.633 83.373 171.513 105.072 139.565 136.392L187.243 136.426C195.973 136.366 204.392 139.661 210.762 145.629C217.132 151.597 220.967 159.783 221.474 168.496C221.981 177.209 219.122 185.784 213.487 192.451C207.852 199.117 199.871 203.365 191.193 204.318L187.243 204.522H50.9527C42.6114 204.521 34.5605 201.46 28.3272 195.918C22.0938 190.376 18.1115 182.74 17.1356 174.458L16.8972 170.474V34.281C16.8376 25.5531 20.1326 17.1356 26.102 10.7669C32.0713 4.39809 40.259 0.564407 48.9741 0.0575137C57.6893 -0.44938 66.2664 2.40923 72.9341 8.04301C79.6018 13.6768 83.8509 21.6555 84.8039 30.3314L85.0083 34.315V94.7167C113.606 64.7866 147.982 40.9713 186.055 24.7129C224.128 8.45461 265.105 0.0916399 306.505 0.130525V0.130525ZM280.964 136.324C287.136 136.324 293.099 138.559 297.751 142.615C302.402 146.671 305.428 152.273 306.267 158.387L306.505 161.86V306.565H383.13C389.602 306.567 395.831 309.025 400.56 313.442C405.288 317.859 408.164 323.906 408.605 330.361C409.046 336.816 407.02 343.197 402.936 348.216C398.852 353.235 393.015 356.517 386.604 357.399L383.13 357.638H280.964C274.792 357.637 268.828 355.403 264.177 351.347C259.525 347.291 256.5 341.688 255.661 335.574L255.422 332.101V161.86C255.422 155.087 258.113 148.592 262.903 143.803C267.693 139.014 274.19 136.324 280.964 136.324V136.324Z" fill="white"/>
</svg>
