<svg width="572" height="620" viewBox="0 0 572 620" fill="none" xmlns="http://www.w3.org/2000/svg">
<path d="M239.713 16.8127C252.596 5.95494 268.902 0 285.75 0C302.598 0 318.904 5.95494 331.787 16.8127L546.1 197.629C562.229 211.186 571.5 231.157 571.5 252.239V563.452C571.5 578.189 565.646 592.321 555.226 602.741C544.806 613.161 530.674 619.015 515.938 619.015H420.688C405.951 619.015 391.819 613.161 381.399 602.741C370.979 592.321 365.125 578.189 365.125 563.452V404.703C365.125 398.387 362.616 392.33 358.15 387.865C353.685 383.399 347.628 380.89 341.312 380.89H230.188C223.872 380.89 217.815 383.399 213.35 387.865C208.884 392.33 206.375 398.387 206.375 404.703V563.452C206.375 578.189 200.521 592.321 190.101 602.741C179.681 613.161 165.549 619.015 150.812 619.015H55.5625C48.2659 619.015 41.0408 617.578 34.2997 614.786C27.5585 611.993 21.4333 607.901 16.2739 602.741C11.1144 597.582 7.02172 591.457 4.22945 584.715C1.43717 577.974 0 570.749 0 563.452V252.207C0 231.157 9.271 211.186 25.4 197.597L239.713 16.8127V16.8127Z" fill="white"/>
</svg>
