<svg width="725" height="653" viewBox="0 0 725 653" fill="none" xmlns="http://www.w3.org/2000/svg">
<path d="M462.073 435.125C497.05 435.125 525.438 463.512 525.438 498.49L525.401 533.322C529.638 612.618 470.691 652.701 364.926 652.701C259.56 652.701 199.563 613.234 199.563 534.698V498.49C199.563 463.512 227.95 435.125 262.927 435.125H462.073V435.125ZM63.7813 254.083H222.229C215.911 278.668 216.154 304.481 222.934 328.943C229.713 353.405 242.792 375.66 260.863 393.485L266.729 398.953L262.927 398.917C241.196 398.909 220.059 406.01 202.741 419.138C185.423 432.265 172.875 450.698 167.011 471.623L165.78 471.659C60.4139 471.659 0.416687 432.192 0.416687 353.656V317.448C0.416687 282.471 28.804 254.083 63.7813 254.083ZM661.219 254.083C696.196 254.083 724.583 282.471 724.583 317.448L724.547 352.28C728.784 431.577 669.836 471.659 564.072 471.659L557.953 471.587C552.386 451.864 540.882 434.334 525.004 421.377C509.126 408.421 489.644 400.668 469.206 399.17L462.073 398.917L458.271 398.953C478.371 381.299 493.174 358.41 501.031 332.838C508.888 307.266 509.49 280.014 502.771 254.12L661.219 254.083ZM362.5 181.667C376.765 181.667 390.89 184.476 404.069 189.935C417.248 195.394 429.223 203.395 439.309 213.482C449.396 223.569 457.398 235.544 462.856 248.723C468.315 261.902 471.125 276.027 471.125 290.292C471.125 304.557 468.315 318.682 462.856 331.861C457.398 345.04 449.396 357.014 439.309 367.101C429.223 377.188 417.248 385.189 404.069 390.648C390.89 396.107 376.765 398.917 362.5 398.917C333.691 398.917 306.062 387.472 285.691 367.101C265.319 346.73 253.875 319.101 253.875 290.292C253.875 261.483 265.319 233.853 285.691 213.482C306.062 193.111 333.691 181.667 362.5 181.667V181.667ZM163.354 0.625C192.163 0.625 219.793 12.0694 240.164 32.4405C260.535 52.8117 271.979 80.4409 271.979 109.25C271.979 138.059 260.535 165.688 240.164 186.06C219.793 206.431 192.163 217.875 163.354 217.875C134.545 217.875 106.916 206.431 86.5447 186.06C66.1736 165.688 54.7292 138.059 54.7292 109.25C54.7292 80.4409 66.1736 52.8117 86.5447 32.4405C106.916 12.0694 134.545 0.625 163.354 0.625V0.625ZM561.646 0.625C590.455 0.625 618.084 12.0694 638.455 32.4405C658.826 52.8117 670.271 80.4409 670.271 109.25C670.271 138.059 658.826 165.688 638.455 186.06C618.084 206.431 590.455 217.875 561.646 217.875C532.837 217.875 505.207 206.431 484.836 186.06C464.465 165.688 453.021 138.059 453.021 109.25C453.021 80.4409 464.465 52.8117 484.836 32.4405C505.207 12.0694 532.837 0.625 561.646 0.625Z" fill="white"/>
</svg>
