<svg width="500" height="500" viewBox="0 0 500 500" fill="none" xmlns="http://www.w3.org/2000/svg">
<path d="M203 0.5C240.745 0.498481 277.74 11.0466 309.809 30.9539C341.878 50.8612 367.744 79.3354 384.49 113.163C401.235 146.991 408.193 184.825 404.577 222.397C400.961 259.969 386.917 295.782 364.028 325.796L492.089 453.911C496.931 458.77 499.743 465.29 499.952 472.146C500.161 479.003 497.753 485.682 493.216 490.828C488.679 495.973 482.354 499.198 475.525 499.849C468.696 500.499 461.876 498.526 456.449 494.33L453.911 492.089L325.796 364.028C300.227 383.525 270.383 396.652 238.733 402.324C207.083 407.997 174.537 406.05 143.789 396.647C113.041 387.243 84.9735 370.653 61.9102 348.248C38.8469 325.843 21.4504 298.268 11.1603 267.805C0.870172 237.342 -2.01778 204.866 2.73542 173.065C7.48861 141.265 19.7463 111.053 38.4942 84.9297C57.2421 58.8068 81.9412 37.5239 110.548 22.8421C139.154 8.16031 170.846 0.501697 203 0.5V0.5ZM203 54.5C163.615 54.5 125.844 70.1455 97.9946 97.9947C70.1455 125.844 54.5 163.615 54.5 203C54.5 242.385 70.1455 280.156 97.9946 308.005C125.844 335.855 163.615 351.5 203 351.5C242.385 351.5 280.156 335.855 308.005 308.005C335.854 280.156 351.5 242.385 351.5 203C351.5 163.615 335.854 125.844 308.005 97.9947C280.156 70.1455 242.385 54.5 203 54.5Z" fill="black"/>
</svg>
