<svg width="538" height="560" viewBox="0 0 538 560" fill="none" xmlns="http://www.w3.org/2000/svg">
<path d="M269.344 0.5C290.385 0.729333 311.341 3.166 331.895 7.75267C336.267 8.72876 340.226 11.0465 343.217 14.3821C346.208 17.7177 348.083 21.9045 348.579 26.3573L353.452 70.1313C354.14 76.3028 356.267 82.2266 359.662 87.4261C363.057 92.6256 367.625 96.9556 372.999 100.068C378.373 103.18 384.402 104.987 390.601 105.344C396.801 105.701 402.997 104.598 408.693 102.123L448.855 84.4933C452.932 82.6974 457.467 82.2127 461.832 83.1062C466.198 83.9998 470.177 86.2275 473.221 89.4813C502.23 120.473 523.833 157.639 536.403 198.185C537.721 202.446 537.681 207.012 536.289 211.249C534.897 215.486 532.222 219.186 528.634 221.835L493.03 248.094C488.023 251.772 483.952 256.576 481.146 262.119C478.34 267.662 476.878 273.787 476.878 280C476.878 286.213 478.34 292.338 481.146 297.881C483.952 303.424 488.023 308.228 493.03 311.906L528.663 338.136C532.261 340.783 534.946 344.486 536.344 348.73C537.741 352.973 537.782 357.547 536.46 361.815C523.885 402.358 502.284 439.524 473.279 470.519C470.242 473.765 466.274 475.991 461.921 476.889C457.568 477.788 453.043 477.315 448.969 475.535L408.635 457.848C402.948 455.354 396.753 454.234 390.552 454.579C384.351 454.924 378.318 456.724 372.942 459.834C367.566 462.943 362.998 467.275 359.607 472.478C356.216 477.681 354.098 483.609 353.423 489.783L348.579 533.528C348.09 537.932 346.253 542.078 343.317 545.399C340.382 548.719 336.493 551.051 332.181 552.075C290.659 561.954 247.398 561.954 205.876 552.075C201.565 551.051 197.675 548.719 194.74 545.399C191.805 542.078 189.967 537.932 189.479 533.528L184.663 489.84C183.96 483.682 181.823 477.774 178.422 472.592C175.022 467.41 170.453 463.099 165.083 460.004C159.713 456.909 153.691 455.117 147.503 454.773C141.314 454.428 135.131 455.54 129.451 458.02L89.1453 475.679C85.0683 477.465 80.5375 477.941 76.1782 477.043C71.8188 476.144 67.8458 473.915 64.8073 470.662C35.7883 439.634 14.1859 402.428 1.62602 361.843C0.304376 357.576 0.345083 353.002 1.74248 348.758C3.13987 344.515 5.82453 340.812 9.42334 338.165L45.056 311.906C50.0683 308.232 54.1444 303.428 56.9541 297.885C59.7638 292.342 61.228 286.215 61.228 280C61.228 273.785 59.7638 267.658 56.9541 262.115C54.1444 256.571 50.0683 251.768 45.056 248.094L9.42334 221.893C5.82962 219.241 3.15065 215.537 1.75848 211.294C0.366305 207.05 0.330025 202.479 1.65468 198.214C14.2257 157.669 35.8279 120.502 64.836 89.51C67.88 86.2562 71.8597 84.0285 76.2249 83.1349C80.59 82.2413 85.125 82.726 89.2027 84.522L129.336 102.152C135.041 104.625 141.247 105.726 147.455 105.365C153.662 105.005 159.699 103.193 165.08 100.076C170.46 96.9595 175.035 92.6241 178.436 87.4185C181.837 82.2129 183.97 76.2821 184.663 70.1027L189.536 26.3573C190.028 21.8955 191.904 17.6995 194.901 14.3579C197.898 11.0162 201.866 8.69649 206.249 7.724C226.803 3.166 247.815 0.758 269.344 0.5ZM269 194C246.191 194 224.317 203.061 208.189 219.189C192.061 235.317 183 257.191 183 280C183 302.809 192.061 324.683 208.189 340.811C224.317 356.939 246.191 366 269 366C291.809 366 313.683 356.939 329.811 340.811C345.939 324.683 355 302.809 355 280C355 257.191 345.939 235.317 329.811 219.189C313.683 203.061 291.809 194 269 194Z" fill="white"/>
</svg>
