<svg width="536" height="596" viewBox="0 0 536 596" fill="none" xmlns="http://www.w3.org/2000/svg">
<path d="M513.438 89.75C434.213 89.75 357.012 61.6958 281.387 4.9625C277.525 2.06585 272.828 0.5 268 0.5C263.172 0.5 258.475 2.06585 254.613 4.9625C178.988 61.6958 101.787 89.75 22.5625 89.75C16.6449 89.75 10.9696 92.1008 6.78518 96.2852C2.60077 100.47 0.25 106.145 0.25 112.062V268.25C0.25 417.03 88.2505 526.361 259.819 593.953C265.076 596.025 270.924 596.025 276.181 593.953C447.749 526.361 535.75 417 535.75 268.25V112.062C535.75 106.145 533.399 100.47 529.215 96.2852C525.03 92.1008 519.355 89.75 513.438 89.75ZM409.521 217.764L231.021 381.389C226.781 385.272 221.206 387.368 215.458 387.24C209.71 387.113 204.234 384.772 200.17 380.705L125.795 306.33C123.603 304.287 121.845 301.824 120.625 299.087C119.406 296.35 118.75 293.395 118.697 290.4C118.644 287.404 119.195 284.428 120.317 281.649C121.44 278.871 123.11 276.347 125.229 274.229C127.347 272.11 129.871 270.44 132.649 269.317C135.428 268.195 138.404 267.644 141.4 267.697C144.395 267.75 147.35 268.406 150.087 269.625C152.824 270.845 155.287 272.603 157.33 274.795L216.622 334.057L379.354 184.861C383.718 180.86 389.491 178.757 395.405 179.014C401.319 179.271 406.889 181.866 410.889 186.229C414.89 190.593 416.993 196.366 416.736 202.28C416.479 208.194 413.884 213.764 409.521 217.764V217.764Z" fill="white"/>
</svg>
