<svg width="305" height="300" viewBox="0 0 305 300" fill="none" xmlns="http://www.w3.org/2000/svg">
<path d="M304.513 220.021C304.513 198.931 296.135 178.704 281.222 163.791C266.309 148.878 246.082 140.5 224.992 140.5C203.902 140.5 183.675 148.878 168.762 163.791C153.849 178.704 145.471 198.931 145.471 220.021C145.471 241.111 153.849 261.338 168.762 276.251C183.675 291.164 203.902 299.542 224.992 299.542C246.082 299.542 266.309 291.164 281.222 276.251C296.135 261.338 304.513 241.111 304.513 220.021ZM232.221 227.25L232.25 263.454C232.25 265.371 231.488 267.21 230.133 268.565C228.777 269.921 226.938 270.683 225.021 270.683C223.104 270.683 221.265 269.921 219.909 268.565C218.553 267.21 217.792 265.371 217.792 263.454V227.25H181.574C179.656 227.25 177.817 226.488 176.462 225.133C175.106 223.777 174.344 221.938 174.344 220.021C174.344 218.104 175.106 216.265 176.462 214.909C177.817 213.553 179.656 212.792 181.574 212.792H217.792L217.777 176.646C217.777 174.729 218.539 172.89 219.895 171.534C221.25 170.178 223.089 169.417 225.006 169.417C226.924 169.417 228.762 170.178 230.118 171.534C231.474 172.89 232.236 174.729 232.236 176.646V212.792H268.338C270.255 212.792 272.094 213.553 273.45 214.909C274.806 216.265 275.567 218.104 275.567 220.021C275.567 221.938 274.806 223.777 273.45 225.133C272.094 226.488 270.255 227.25 268.338 227.25H232.221Z" fill="black"/>
<path d="M127.977 11.8642C135.133 -2.65196 155.823 -2.65196 162.98 11.8642L197.073 80.9317L273.312 92.0068C289.317 94.3345 295.708 114.012 284.127 125.304L271.027 138.071C254.814 128.953 236.259 124.852 217.713 126.287C199.167 127.722 181.464 134.628 166.845 146.132C152.227 157.635 141.351 173.217 135.596 190.906C129.84 208.594 129.462 227.593 134.512 245.496L77.3001 275.57C62.9863 283.103 46.2436 270.943 48.9618 254.996L61.9887 179.089L6.83017 125.304C-4.75095 114.027 1.63963 94.3345 17.645 92.0068L93.8838 80.9317L127.977 11.8642Z" fill="black"/>
</svg>
