<svg width="568" height="568" viewBox="0 0 568 568" fill="none" xmlns="http://www.w3.org/2000/svg">
<path d="M71.375 0.5C52.5778 0.5 34.5504 7.96717 21.2588 21.2588C7.96717 34.5504 0.5 52.5778 0.5 71.375V496.625C0.5 515.422 7.96717 533.45 21.2588 546.741C34.5504 560.033 52.5778 567.5 71.375 567.5H496.625C515.422 567.5 533.45 560.033 546.741 546.741C560.033 533.45 567.5 515.422 567.5 496.625V71.375C567.5 52.5778 560.033 34.5504 546.741 21.2588C533.45 7.96717 515.422 0.5 496.625 0.5H71.375ZM245.57 182.57L182.57 245.57C178.14 249.994 172.136 252.479 165.875 252.479C159.614 252.479 153.61 249.994 149.18 245.57L117.68 214.07C113.507 209.591 111.235 203.668 111.343 197.548C111.451 191.427 113.93 185.587 118.259 181.259C122.587 176.93 128.427 174.451 134.548 174.343C140.668 174.235 146.591 176.507 151.07 180.68L165.875 195.485L212.18 149.18C214.343 146.859 216.951 144.997 219.849 143.706C222.747 142.415 225.875 141.72 229.048 141.664C232.22 141.608 235.371 142.192 238.312 143.38C241.254 144.568 243.926 146.337 246.17 148.58C248.413 150.824 250.182 153.496 251.37 156.438C252.558 159.379 253.142 162.53 253.086 165.702C253.03 168.875 252.335 172.003 251.044 174.901C249.753 177.799 247.891 180.407 245.57 182.57V182.57ZM433.625 173.75C439.891 173.75 445.9 176.239 450.33 180.67C454.761 185.1 457.25 191.109 457.25 197.375C457.25 203.641 454.761 209.65 450.33 214.08C445.9 218.511 439.891 221 433.625 221H323.375C317.109 221 311.1 218.511 306.67 214.08C302.239 209.65 299.75 203.641 299.75 197.375C299.75 191.109 302.239 185.1 306.67 180.67C311.1 176.239 317.109 173.75 323.375 173.75H433.625ZM299.75 370.625C299.75 364.359 302.239 358.35 306.67 353.92C311.1 349.489 317.109 347 323.375 347H433.625C439.891 347 445.9 349.489 450.33 353.92C454.761 358.35 457.25 364.359 457.25 370.625C457.25 376.891 454.761 382.9 450.33 387.33C445.9 391.761 439.891 394.25 433.625 394.25H323.375C317.109 394.25 311.1 391.761 306.67 387.33C302.239 382.9 299.75 376.891 299.75 370.625V370.625ZM245.57 322.43C249.994 326.86 252.479 332.864 252.479 339.125C252.479 345.386 249.994 351.39 245.57 355.82L182.57 418.82C178.14 423.244 172.136 425.729 165.875 425.729C159.614 425.729 153.61 423.244 149.18 418.82L117.68 387.32C115.359 385.157 113.497 382.549 112.206 379.651C110.915 376.753 110.22 373.625 110.164 370.452C110.108 367.28 110.692 364.129 111.88 361.188C113.068 358.246 114.837 355.574 117.08 353.33C119.324 351.087 121.996 349.318 124.938 348.13C127.879 346.942 131.03 346.358 134.202 346.414C137.375 346.47 140.503 347.165 143.401 348.456C146.299 349.747 148.907 351.609 151.07 353.93L165.875 368.735L212.18 322.43C216.61 318.006 222.614 315.521 228.875 315.521C235.136 315.521 241.14 318.006 245.57 322.43V322.43Z" fill="white"/>
</svg>
